<?xml version="1.0" encoding="utf-8"?>
<!-- Generator: Adobe Illustrator 23.0.3, SVG Export Plug-In . SVG Version: 6.00 Build 0)  -->
<svg version="1.1"
	 id="logosvg" inkscape:version="0.48.4 r9939" sodipodi:docname="BillboardLogo2013.svg" xmlns:cc="http://creativecommons.org/ns#" xmlns:dc="http://purl.org/dc/elements/1.1/" xmlns:inkscape="http://www.inkscape.org/namespaces/inkscape" xmlns:rdf="http://www.w3.org/1999/02/22-rdf-syntax-ns#" xmlns:sodipodi="http://sodipodi.sourceforge.net/DTD/sodipodi-0.dtd" xmlns:svg="http://www.w3.org/2000/svg"
	 xmlns="http://www.w3.org/2000/svg" xmlns:xlink="http://www.w3.org/1999/xlink" x="0px" y="0px" viewBox="0 0 400 300"
	 style="enable-background:new 0 0 400 300;" xml:space="preserve">
<style type="text/css">
	.st0{fill:#ED1C34;stroke:#ED1C34;}
	.st1{fill:#FDDE04;stroke:#FDDE04;}
	.st2{fill:#2EAEE4;stroke:#2EAEE4;}
	.st3{fill:#FA9D1D;stroke:#FA9D1D;}
	.st4{fill:#24AA4A;stroke:#24AA4A;}
</style>
<path id="color_4_" sodipodi:cx="161.78687" sodipodi:cy="53.69659" sodipodi:rx="11.559004" sodipodi:ry="11.480638" sodipodi:type="arc" class="st0" d="
	M171.9,162.8c0,6-4.9,10.9-11,10.9s-11-4.9-11-10.9c0-6.1,4.9-10.9,11-10.9S171.9,156.7,171.9,162.8z"/>
<path id="color_3_" sodipodi:cx="220.60065" sodipodi:cy="52.67783" sodipodi:rx="11.284722" sodipodi:ry="11.088807" sodipodi:type="arc" class="st1" d="
	M227.6,161.7c0,5.8-4.9,10.6-10.7,10.6c-5.9,0-10.7-4.8-10.7-10.6s4.9-10.6,10.7-10.6C222.7,151.2,227.6,155.9,227.6,161.7z"/>
<path id="color_2_" sodipodi:cx="278.00385" sodipodi:cy="53.030479" sodipodi:rx="11.559004" sodipodi:ry="11.206356" sodipodi:type="arc" class="st2" d="
	M282.5,162.1c0,5.9-4.9,10.7-11,10.7s-11-4.8-11-10.7s4.9-10.7,11-10.7S282.5,156.2,282.5,162.1z"/>
<path id="color_1_" sodipodi:cx="376.15741" sodipodi:cy="53.383125" sodipodi:rx="11.51982" sodipodi:ry="11.63737" sodipodi:type="arc" class="st3" d="
	M375.8,162.4c0,6.1-4.9,11-10.9,11c-6,0-10.9-4.9-10.9-11c0-6.1,4.9-11,10.9-11C370.9,151.4,375.8,156.3,375.8,162.4z"/>
<path id="color" sodipodi:cx="30.210142" sodipodi:cy="53.774956" sodipodi:rx="11.63737" sodipodi:ry="11.715736" sodipodi:type="arc" class="st4" d="
	M46.9,162.8c0,6.2-4.9,11.1-11,11.1s-11-4.9-11-11.1s4.9-11.1,11-11.1S46.9,156.7,46.9,162.8z"/>
<path id="black" d="M74.1,111.7h3.5c6.6,1.2,10.7,8.9,7.4,14.9c-3.4,7.1-14.8,7.3-18.5,0.4C62.6,120.9,67,112.6,74.1,111.7z
	 M88.3,114.6c6.1,0.1,12.1,0,18.2,0c0,24.9,0.1,49.8-0.1,74.8c-6.1-0.1-12.1,0-18.2,0C88.3,164.4,88.2,139.5,88.3,114.6z
	 M110.1,114.6c6-0.1,12.1,0,18.2-0.1c0.2,24.9,0,49.8,0.1,74.8c-6.1,0-12.1,0-18.2,0C110.1,164.4,110.2,139.5,110.1,114.6z
	 M132.3,114.6c6.1,0,12.2,0,18.2,0c0,7.8,0.1,15.7,0,23.5c8.2-4.7,18.8-4.2,26.8,0.7c6.4,3.7,10.4,10.4,12.2,17.4
	c1.7-7,6.1-13.5,12.4-17.4c9.7-6.3,23.3-5.7,32.4,1.5c5.1,3.9,8.5,9.7,10.3,15.8c1.7-9.4,8.7-17.9,18.1-20.3
	c7-2.2,14.9-0.9,20.7,3.7c0-1-0.1-2.9-0.1-3.8c6.1,0,12.2,0,18.3,0c0,17.9,0,35.8,0,53.7c-6.1,0-12.2,0-18.3,0
	c0-0.7,0.1-2.1,0.1-2.8c-14.6,9.5-36.8-0.5-38.8-17.9c-1.9,6.8-6.1,13.2-12.3,17c-10,6.5-24,5.6-33.1-2c-4.9-3.9-8.2-9.5-9.6-15.5
	c-1.6,8.4-6.9,16.2-14.8,19.7c-7.9,3.8-17.9,2.7-24.4-3.2c0,1.5,0,3.1,0,4.7c-6,0-12,0-17.9,0C132.3,164.4,132.2,139.5,132.3,114.6
	 M154.7,154.6c-4.4,2.6-4.1,8.7-2.9,12.9c3.1,6,12.2,7.3,16.6,2.2c5.8-4.8,2.9-16.6-5.3-16c0.7-0.3,1.3-0.7,2-1
	C161.6,152.5,157.6,152,154.7,154.6 M212.9,152.4c-6.2,2.1-8.7,10.7-4.3,15.7c4.6,6.3,15.9,4.6,18.1-3
	C230,157.2,220.6,148.9,212.9,152.4 M267.7,152.6c-6.8,2.1-9.3,11.4-4.3,16.5c5.5,6.3,18.3,2.8,18-6.2
	C282.5,155.6,274.3,150.2,267.7,152.6z M7,114.6c6,0,12.1,0,18.2,0c0,7.8,0.1,15.6,0,23.5c11-6.3,26.5-3.1,34,7.2
	c7.2,9.8,7.3,24.3,0.3,34.2c-7.3,11-24.4,14.4-34.6,5.1c0,1.1,0,3.5,0.1,4.7c-6,0-11.9,0-17.9,0L7,114.6 M32.1,153.1
	c-7.6,2.3-9.2,13.8-2.4,17.9c6.3,4.9,16.7-0.3,16.3-8.3C46.5,155.7,38.4,150.5,32.1,153.1z M375.3,114.6c6,0,12.1,0,18.2,0v74.8
	c-5.9,0-11.9,0-17.8,0c0-1.1,0-3.5,0-4.7c-3.2,2.3-6.7,4.6-10.7,5c-9.4,1.7-19.3-3-24.4-10.9c-8-12-5.8-30.3,6.2-38.9
	c8.1-6,19.8-6.8,28.5-1.9C375.3,130.2,375.3,122.4,375.3,114.6 M361.7,152.7c-7.1,1.7-10,11.6-4.7,16.7c5.1,5.8,16,3.3,17.7-4.3
	C377.1,157.6,369.1,150.4,361.7,152.7z M66.5,135.5c6.1,0,12.2,0,18.2,0c0,17.9,0,35.9,0,53.8c-6.1,0-12.1,0-18.2,0
	C66.5,171.4,66.5,153.5,66.5,135.5z M304.9,135.5c6.1,0,12.2,0,18.3,0c0,1.2,0,3.7,0,4.9c3-3.6,7.5-5.4,12.1-5.6
	c0,6.2,0,12.4,0,18.5c-3.1,0.3-6.8,0.1-9.2,2.4c-2.3,2-2.9,5.2-2.9,8.2c-0.1,8.5,0,16.9,0,25.3c-6.1-0.1-12.1,0-18.2,0
	C304.9,171.3,304.9,153.5,304.9,135.5L304.9,135.5z M86.8,121.8c0,6-4.9,10.8-11.1,10.8c-6.2,0-11.2-4.9-11.2-10.8
	c0-6,5-10.7,11.2-10.7C81.9,111,86.8,115.9,86.8,121.8z"/>
</svg>
