<?xml version="1.0" encoding="utf-8"?>
<!-- Generator: Adobe Illustrator 23.0.3, SVG Export Plug-In . SVG Version: 6.00 Build 0)  -->
<svg version="1.1" id="Layer_1" xmlns="http://www.w3.org/2000/svg" xmlns:xlink="http://www.w3.org/1999/xlink" x="0px" y="0px"
	 viewBox="0 0 400 300" style="enable-background:new 0 0 400 300;" xml:space="preserve">
<style type="text/css">
	.st0{fill:#FFEE00;}
</style>
<path class="st0" d="M26.2,191.2h347.7v-28.1H26.2L26.2,191.2z"/>
<path d="M57.1,101l-11.4,17.8h-4.7V101H26.2v47.4h14.8v-18.5h4.5L57,148.4h18l-16.4-25L74.1,101L57.1,101 M117.5,111h11V101h-11V111
	z M76.3,111h11V101h-11V111z M107.7,129.4H96.8l4-12.4l1.4-4.9h0.2l1.4,4.9L107.7,129.4z M130.2,148.4L111,101H93.8L75,148.4h15.7
	l2.5-8h17.8l2.5,8H130.2 M354.6,117.3c0,4.5-1.8,5.6-6.1,5.6h-6.2v-10.8h6.3C353.1,112.1,354.6,113.3,354.6,117.3L354.6,117.3z
	 M370.1,116.7c0-10.6-7.4-15.7-21.3-15.7h-21.3v47.4h14.8v-15.6h6.1l8,15.6h17.4l-12.1-18.4C367,128.1,370.1,122.8,370.1,116.7
	 M220.7,102.1c-3.4-1.1-8.3-2-12.8-2c-18.2,0-26.3,9.4-26.3,24.4c0,16.2,8.6,24.8,25,24.8c4.9,0,10.2-1.1,14.2-2.9l-1.6-10.9
	c-3,1.2-6.7,2-10.6,2c-9,0-11.4-3.1-11.4-12.9c0-9.3,2.2-12.4,11.2-12.4c4.2,0,7.8,0.6,10.7,1.4L220.7,102.1 M272.8,148.4V101H258
	v17.5h-15.7V101h-14.8v47.4h14.8v-17.8H258v17.8H272.8z M296.4,136.7v-7.2h19.3v-10.4h-19.3v-6.3h23.3l-0.3-11.8h-37.8v47.4h38.8
	l0.3-11.7H296.4z M161.9,117.3c0,4.5-1.8,5.6-6.1,5.6h-6.2v-10.8h6.3C160.4,112.1,161.9,113.3,161.9,117.3L161.9,117.3z
	 M177.4,116.7c0-10.6-7.4-15.7-21.3-15.7h-21.3v47.4h14.8v-15.6h6.1l8,15.6h17.4L169,129.9C174.3,128.1,177.4,122.8,177.4,116.7"/>
</svg>
