
        <svg xmlns="http://www.w3.org/2000/svg" xmlns:xlink="http://www.w3.org/1999/xlink" version="1.1" width="3213.089802130898" 
        height="903.5007610350076" viewBox="0 0 3213.089802130898 903.5007610350076">
			
			<g transform="scale(10.654490106544902) translate(10, 10)">
				<defs id="SvgjsDefs3869"><linearGradient id="SvgjsLinearGradient3876"><stop id="SvgjsStop3877" stop-color="#ee2a7b" offset="0"></stop><stop id="SvgjsStop3878" stop-color="#ff7db8" offset="1"></stop></linearGradient></defs><g id="SvgjsG3870" featureKey="symbolFeature-0" transform="matrix(0.909014450322028,0,0,0.909014450322028,-4.54507225161014,-13.05072078229393)" fill="url(#SvgjsLinearGradient3876)"><g xmlns="http://www.w3.org/2000/svg"><path fill="none" d="M29.353,41.922c0-0.461,0.017-0.89,0.045-1.298c-3.062,2.653-8.892,8.692-8.562,16.007   c0.364,8.079,9.386,12.819,12.671-2.161C27.445,49.023,29.353,41.922,29.353,41.922z"></path><path fill="none" d="M49.875,68.961c-0.282,0.555-0.66,1.091-1.181,1.553c-0.774,0.688-1.748,1.121-2.908,1.305   c1.279,0.451,2.655,0.7,4.089,0.7c1.434,0,2.809-0.249,4.088-0.7c-1.16-0.184-2.133-0.617-2.908-1.305   C50.535,70.052,50.157,69.516,49.875,68.961z"></path><path fill="none" d="M70.351,40.625c0.028,0.408,0.045,0.837,0.045,1.297c0,0,1.908,7.102-4.155,12.548   c3.286,14.98,12.306,10.24,12.671,2.161C79.243,49.316,73.413,43.277,70.351,40.625z"></path><path fill="none" d="M67.683,41.638c0-7.274-4.148-6.688-9.264-6.688H41.33c-5.116,0-9.264-0.586-9.264,6.688   c0,0-1.69,6.277,3.748,11.02c1.974,1.722,1.799,7.601,1.799,7.601c0,4.144,2.058,7.805,5.205,10.023   c2.178,0.34,3.821,0.052,4.878-0.881c1.116-0.985,1.386-2.521,1.43-3.544c-0.009-0.248-0.007-0.468,0-0.654   c-0.011-0.244-0.029-0.397-0.03-0.404c-0.007-0.049,0.006-0.094,0.009-0.141c-2.606-0.188-4.615-1.294-4.615-2.645   c0-1.482,2.41-2.684,5.385-2.684c2.974,0,5.384,1.202,5.384,2.684c0,1.35-2.008,2.457-4.614,2.645   c0.003,0.048,0.015,0.093,0.009,0.142c-0.001,0.01-0.019,0.163-0.03,0.404c0.007,0.186,0.008,0.405,0,0.653   c0.044,1.023,0.313,2.56,1.43,3.546c1.057,0.933,2.699,1.22,4.877,0.881c3.147-2.22,5.205-5.88,5.205-10.024   c0,0-0.175-5.879,1.799-7.601C69.373,47.916,67.683,41.638,67.683,41.638z M43.545,44.678h-4.016V43.38   c0-1.109,0.899-2.008,2.009-2.008c1.109,0,2.008,0.899,2.008,2.008V44.678z M60.22,44.678h-4.017V43.38   c0-1.109,0.899-2.008,2.009-2.008c1.11,0,2.008,0.899,2.008,2.008V44.678z"></path><path d="M71.375,14.357c-9.447,0-17.595,6.165-21.375,15.071c-3.78-8.907-11.928-15.071-21.374-15.071   C15.577,14.357,5,26.115,5,40.619c0,9.269,4.323,17.409,10.847,22.084l-0.001,0l0.036,0.024c0.366,0.261,0.738,0.512,1.117,0.751   L50,85.643l32.959-22.138C90.145,59.001,95,50.443,95,40.619C95,26.115,84.423,14.357,71.375,14.357z M20.836,56.631   c-0.331-7.315,5.499-13.354,8.562-16.007c-0.028,0.408-0.045,0.837-0.045,1.298c0,0-1.908,7.101,4.154,12.548   C30.222,69.45,21.201,64.71,20.836,56.631z M49.875,72.519c-1.434,0-2.81-0.249-4.089-0.7c1.16-0.184,2.134-0.617,2.908-1.305   c0.521-0.462,0.898-0.998,1.181-1.553c0.282,0.555,0.66,1.091,1.181,1.553c0.774,0.688,1.747,1.121,2.908,1.305   C52.684,72.27,51.309,72.519,49.875,72.519z M63.935,52.658c-1.974,1.722-1.799,7.601-1.799,7.601   c0,4.144-2.058,7.805-5.205,10.024c-2.178,0.339-3.821,0.052-4.877-0.881c-1.117-0.987-1.386-2.523-1.43-3.546   c0.008-0.247,0.007-0.467,0-0.653c0.011-0.24,0.029-0.393,0.03-0.404c0.007-0.049-0.006-0.094-0.009-0.142   c2.605-0.188,4.614-1.294,4.614-2.645c0-1.482-2.41-2.684-5.384-2.684c-2.974,0-5.385,1.202-5.385,2.684   c0,1.351,2.009,2.457,4.615,2.645c-0.003,0.047-0.016,0.093-0.009,0.141c0.001,0.007,0.019,0.16,0.03,0.404   c-0.007,0.186-0.009,0.406,0,0.654c-0.044,1.023-0.313,2.559-1.43,3.544c-1.057,0.934-2.7,1.221-4.878,0.881   c-3.147-2.219-5.205-5.88-5.205-10.023c0,0,0.175-5.879-1.799-7.601c-5.439-4.742-3.748-11.02-3.748-11.02   c0-7.274,4.148-6.688,9.264-6.688h17.09c5.116,0,9.264-0.586,9.264,6.688C67.683,41.638,69.373,47.916,63.935,52.658z    M66.242,54.47c6.063-5.446,4.155-12.548,4.155-12.548c0-0.461-0.017-0.89-0.045-1.297c3.062,2.653,8.892,8.691,8.561,16.006   C78.548,64.71,69.527,69.45,66.242,54.47z"></path><path d="M41.538,41.372c-1.11,0-2.009,0.899-2.009,2.008v1.298h4.016V43.38C43.545,42.271,42.647,41.372,41.538,41.372z"></path><path d="M58.212,41.372c-1.109,0-2.009,0.899-2.009,2.008v1.298h4.017V43.38C60.22,42.271,59.321,41.372,58.212,41.372z"></path></g></g><g id="SvgjsG3871" featureKey="nameLeftFeature-0" transform="matrix(2.517482483904079,0,0,2.517482483904079,98.97902149948678,-0.10489250256608607)" fill="#ffffff"><path d="M6.1 6 c3.14 0 5.18 1.9 5.18 4.76 c0 2.82 -2.04 4.58 -5.18 4.58 l-1.98 0 l0 4.66 l-2.92 0 l0 -14 l4.9 0 z M5.92 12.82 c1.44 0 2.44 -0.56 2.44 -2.06 c0 -1.48 -1 -2.08 -2.44 -2.08 l-1.8 0 l0 4.14 l1.8 0 z M21.08 6 l2.92 0 l0 8.92 c0 3.4 -2.46 5.38 -5.4 5.38 s-5.42 -1.98 -5.42 -5.38 l0 -8.92 l2.92 0 l0 8.94 c0 2.04 1.34 2.62 2.5 2.62 c1.14 0 2.48 -0.58 2.48 -2.62 l0 -8.94 z M31.300000000000004 6 c3.14 0 5.18 1.9 5.18 4.76 c0 2.82 -2.04 4.58 -5.18 4.58 l-1.98 0 l0 4.66 l-2.92 0 l0 -14 l4.9 0 z M31.120000000000005 12.82 c1.44 0 2.44 -0.56 2.44 -2.06 c0 -1.48 -1 -2.08 -2.44 -2.08 l-1.8 0 l0 4.14 l1.8 0 z"></path></g><g id="SvgjsG3872" featureKey="nameRightFeature-0" transform="matrix(2.5714285714285716,0,0,2.5714285714285716,194.91428559167045,-0.42857020241873656)" fill="#ffffff"><path d="M5.46 6 c3.14 0 4.8 1.94 4.8 4.3 c0 2.42 -1.66 4.34 -4.8 4.34 l-3.68 0 l0 5.36 l-0.58 0 l0 -14 l4.26 0 z M5.54 14.04 c2.52 0 4.14 -1.46 4.14 -3.74 c0 -2.32 -1.62 -3.72 -4.14 -3.72 l-3.76 0 l0 7.46 l3.76 0 z M21.8 6 l-5.14 7.12 l0 6.88 l-0.58 0 l0 -6.88 l-5.12 -7.12 l0.7 0 l4.72 6.56 l4.72 -6.56 l0.7 0 z M24.180000000000003 19.42 l6.94 0 l0 0.58 l-7.52 0 l0 -14 l0.58 0 l0 13.42 z M33.7 6 l0 14 l-0.58 0 l0 -14 l0.58 0 z"></path></g>
			</g>
		</svg>
	