<?xml version="1.0" encoding="utf-8"?>
<!-- Generator: Adobe Illustrator 23.0.3, SVG Export Plug-In . SVG Version: 6.00 Build 0)  -->
<svg version="1.1"
	 id="logosvg.com" xmlns:cc="http://creativecommons.org/ns#" xmlns:dc="http://purl.org/dc/elements/1.1/" xmlns:rdf="http://www.w3.org/1999/02/22-rdf-syntax-ns#" xmlns:svg="http://www.w3.org/2000/svg"
	 xmlns="http://www.w3.org/2000/svg" xmlns:xlink="http://www.w3.org/1999/xlink" x="0px" y="0px" viewBox="0 0 400 300"
	 style="enable-background:new 0 0 400 300;" xml:space="preserve">
<style type="text/css">
	.st0{fill:#F74843;}
</style>
<path id="logo" class="st0" d="M138,130.7l6.9,25.4h-13.3L138,130.7z M379.1,99.5v102.1H20.9V99.5H379.1z M95,120.6H82.5L71.2,166
	l-11.6-45.4H47.8l17.9,60.1h11L95,120.6z M163,180.8l-17.1-60.2h-16.2l-17.1,60c0,0,8.8,0.2,12.4,0c0.7-2.7,3.8-14.8,3.8-14.8h18
	l4,15H163z M229.2,170.6h-25.2v-50h-11.8v60.1h37V170.6z M290.8,120.6h-12.2l-11.3,44.8l-11.6-44.8h0h-12.2l18.2,60.2h10.7
	L290.8,120.6z M340.9,120.6h-25.2v41.1h25.2v-7.8h-16.2v-9h14.8v-7.8h-14.8v-8.7h16.2V120.6z"/>
</svg>
